<mxfile host="65bd71144e">
    <diagram id="Mf98vEHTmx9HT2xZAXaT" name="Seite-1">
        <mxGraphModel dx="655" dy="574" grid="1" gridSize="10" guides="1" tooltips="1" connect="1" arrows="1" fold="1" page="1" pageScale="1" pageWidth="827" pageHeight="1169" math="0" shadow="0">
            <root>
                <mxCell id="0"/>
                <mxCell id="1" parent="0"/>
                <mxCell id="2" value="Client" style="rounded=0;whiteSpace=wrap;html=1;" vertex="1" parent="1">
                    <mxGeometry x="80" y="170" width="100" height="30" as="geometry"/>
                </mxCell>
                <mxCell id="3" value="" style="endArrow=none;dashed=1;html=1;entryX=0.5;entryY=1;entryDx=0;entryDy=0;" edge="1" parent="1" target="2">
                    <mxGeometry width="50" height="50" relative="1" as="geometry">
                        <mxPoint x="130" y="500" as="sourcePoint"/>
                        <mxPoint x="150" y="280" as="targetPoint"/>
                    </mxGeometry>
                </mxCell>
                <mxCell id="11" style="edgeStyle=none;html=1;exitX=1;exitY=0.25;exitDx=0;exitDy=0;entryX=0;entryY=0.25;entryDx=0;entryDy=0;" edge="1" parent="1" source="4" target="7">
                    <mxGeometry relative="1" as="geometry"/>
                </mxCell>
                <mxCell id="12" value="POST /users/login&lt;br&gt;(email/password)" style="edgeLabel;html=1;align=center;verticalAlign=middle;resizable=0;points=[];" vertex="1" connectable="0" parent="11">
                    <mxGeometry x="-0.171" y="4" relative="1" as="geometry">
                        <mxPoint x="11" as="offset"/>
                    </mxGeometry>
                </mxCell>
                <mxCell id="4" value="" style="rounded=0;whiteSpace=wrap;html=1;" vertex="1" parent="1">
                    <mxGeometry x="120" y="230" width="20" height="240" as="geometry"/>
                </mxCell>
                <mxCell id="5" value="Server" style="rounded=0;whiteSpace=wrap;html=1;" vertex="1" parent="1">
                    <mxGeometry x="290" y="170" width="100" height="30" as="geometry"/>
                </mxCell>
                <mxCell id="6" value="" style="endArrow=none;dashed=1;html=1;entryX=0.5;entryY=1;entryDx=0;entryDy=0;" edge="1" parent="1" target="5">
                    <mxGeometry width="50" height="50" relative="1" as="geometry">
                        <mxPoint x="340" y="500" as="sourcePoint"/>
                        <mxPoint x="360" y="280" as="targetPoint"/>
                    </mxGeometry>
                </mxCell>
                <mxCell id="20" style="edgeStyle=none;jumpSize=6;html=1;exitX=0;exitY=0.75;exitDx=0;exitDy=0;entryX=1;entryY=0.75;entryDx=0;entryDy=0;strokeWidth=1;dashed=1;" edge="1" parent="1" source="7" target="4">
                    <mxGeometry relative="1" as="geometry"/>
                </mxCell>
                <mxCell id="21" value="JWT Token im Header" style="edgeLabel;html=1;align=center;verticalAlign=middle;resizable=0;points=[];" vertex="1" connectable="0" parent="20">
                    <mxGeometry x="-0.0921" relative="1" as="geometry">
                        <mxPoint as="offset"/>
                    </mxGeometry>
                </mxCell>
                <mxCell id="7" value="" style="rounded=0;whiteSpace=wrap;html=1;" vertex="1" parent="1">
                    <mxGeometry x="330" y="230" width="20" height="240" as="geometry"/>
                </mxCell>
                <mxCell id="8" value="Datenbank" style="rounded=0;whiteSpace=wrap;html=1;" vertex="1" parent="1">
                    <mxGeometry x="530" y="170" width="100" height="30" as="geometry"/>
                </mxCell>
                <mxCell id="9" value="" style="endArrow=none;dashed=1;html=1;entryX=0.5;entryY=1;entryDx=0;entryDy=0;" edge="1" parent="1" target="8">
                    <mxGeometry width="50" height="50" relative="1" as="geometry">
                        <mxPoint x="580" y="500" as="sourcePoint"/>
                        <mxPoint x="600" y="280" as="targetPoint"/>
                    </mxGeometry>
                </mxCell>
                <mxCell id="10" value="" style="rounded=0;whiteSpace=wrap;html=1;" vertex="1" parent="1">
                    <mxGeometry x="570" y="230" width="20" height="240" as="geometry"/>
                </mxCell>
                <mxCell id="14" value="" style="endArrow=classic;html=1;strokeWidth=1;jumpSize=6;entryX=0;entryY=0.25;entryDx=0;entryDy=0;exitX=1;exitY=0.25;exitDx=0;exitDy=0;" edge="1" parent="1" source="7" target="10">
                    <mxGeometry width="50" height="50" relative="1" as="geometry">
                        <mxPoint x="400" y="320" as="sourcePoint"/>
                        <mxPoint x="460" y="320" as="targetPoint"/>
                        <Array as="points"/>
                    </mxGeometry>
                </mxCell>
                <mxCell id="15" value="Überprüfen der Benutzerdaten" style="edgeLabel;html=1;align=center;verticalAlign=middle;resizable=0;points=[];" vertex="1" connectable="0" parent="14">
                    <mxGeometry x="-0.0935" y="-2" relative="1" as="geometry">
                        <mxPoint x="11" y="-6" as="offset"/>
                    </mxGeometry>
                </mxCell>
                <mxCell id="16" value="" style="endArrow=classic;html=1;strokeWidth=1;jumpSize=6;entryX=1;entryY=0.5;entryDx=0;entryDy=0;exitX=0;exitY=0.5;exitDx=0;exitDy=0;dashed=1;" edge="1" parent="1" source="10" target="7">
                    <mxGeometry width="50" height="50" relative="1" as="geometry">
                        <mxPoint x="440" y="410" as="sourcePoint"/>
                        <mxPoint x="490" y="360" as="targetPoint"/>
                    </mxGeometry>
                </mxCell>
                <mxCell id="17" value="Überprüfung antwort" style="edgeLabel;html=1;align=center;verticalAlign=middle;resizable=0;points=[];" vertex="1" connectable="0" parent="16">
                    <mxGeometry x="-0.0341" y="-4" relative="1" as="geometry">
                        <mxPoint as="offset"/>
                    </mxGeometry>
                </mxCell>
                <mxCell id="18" style="edgeStyle=none;jumpSize=6;html=1;exitX=1.088;exitY=0.584;exitDx=0;exitDy=0;entryX=1.188;entryY=0.697;entryDx=0;entryDy=0;strokeWidth=1;exitPerimeter=0;entryPerimeter=0;" edge="1" parent="1" source="7" target="7">
                    <mxGeometry relative="1" as="geometry">
                        <Array as="points">
                            <mxPoint x="420" y="370"/>
                            <mxPoint x="420" y="400"/>
                        </Array>
                    </mxGeometry>
                </mxCell>
                <mxCell id="19" value="JWT generieren" style="edgeLabel;html=1;align=center;verticalAlign=middle;resizable=0;points=[];" vertex="1" connectable="0" parent="18">
                    <mxGeometry x="-0.0183" y="1" relative="1" as="geometry">
                        <mxPoint x="19" as="offset"/>
                    </mxGeometry>
                </mxCell>
            </root>
        </mxGraphModel>
    </diagram>
</mxfile>